<?xml version="1.0" encoding="UTF-8" standalone="no"?>
<!-- Created with Inkscape (http://www.inkscape.org/) -->

<svg
   xmlns:dc="http://purl.org/dc/elements/1.1/"
   xmlns:cc="http://creativecommons.org/ns#"
   xmlns:rdf="http://www.w3.org/1999/02/22-rdf-syntax-ns#"
   xmlns:svg="http://www.w3.org/2000/svg"
   xmlns="http://www.w3.org/2000/svg"
   xmlns:sodipodi="http://sodipodi.sourceforge.net/DTD/sodipodi-0.dtd"
   xmlns:inkscape="http://www.inkscape.org/namespaces/inkscape"
   version="1.0"
   width="168.46526"
   height="117.01562"
   id="svg2974"
   inkscape:version="0.48.2 r9819"
   sodipodi:docname="urbit_logo_ur.svg">
  <metadata
     id="metadata20">
    <rdf:RDF>
      <cc:Work
         rdf:about="">
        <dc:format>image/svg+xml</dc:format>
        <dc:type
           rdf:resource="http://purl.org/dc/dcmitype/StillImage" />
        <dc:title />
      </cc:Work>
    </rdf:RDF>
  </metadata>
  <sodipodi:namedview
     pagecolor="#ffffff"
     bordercolor="#666666"
     borderopacity="1"
     objecttolerance="10"
     gridtolerance="10"
     guidetolerance="10"
     inkscape:pageopacity="0"
     inkscape:pageshadow="2"
     inkscape:window-width="1280"
     inkscape:window-height="756"
     id="namedview18"
     showgrid="false"
     showguides="false"
     inkscape:guide-bbox="true"
     inkscape:zoom="2"
     inkscape:cx="120.20916"
     inkscape:cy="92.684376"
     inkscape:window-x="161"
     inkscape:window-y="0"
     inkscape:window-maximized="0"
     inkscape:current-layer="text2987"
     inkscape:snap-global="false"
     fit-margin-top="5"
     fit-margin-left="5"
     fit-margin-right="5"
     fit-margin-bottom="5">
    <inkscape:grid
       type="xygrid"
       id="grid3781"
       empspacing="5"
       visible="true"
       enabled="true"
       snapvisiblegridlinesonly="true" />
    <sodipodi:guide
       orientation="0,1"
       position="10.497614,193.52746"
       id="guide3780" />
    <sodipodi:guide
       orientation="0,1"
       position="190.4336,5.2578058"
       id="guide3782" />
    <sodipodi:guide
       orientation="0,1"
       position="76.081764,112.0334"
       id="guide2997" />
    <sodipodi:guide
       orientation="0,1"
       position="88.683594,62.507806"
       id="guide2999" />
    <sodipodi:guide
       orientation="0,1"
       position="66.182274,50.338326"
       id="guide3001" />
  </sodipodi:namedview>
  <defs
     id="defs2976" />
  <g
     transform="translate(243.18381,659.57415)"
     id="layer1">
    <g
       id="g2998">
      <g
         transform="translate(-448.00021,-851.06634)"
         style="font-size:40px;font-style:normal;font-variant:normal;font-weight:normal;font-stretch:normal;line-height:125%;letter-spacing:0px;word-spacing:0px;fill:#000000;fill-opacity:1;stroke:none;font-family:Sans;-inkscape-font-specification:Helvetica"
         id="flowRoot3808" />
      <g
         style="font-size:144px;font-style:normal;font-variant:normal;font-weight:normal;font-stretch:normal;line-height:125%;letter-spacing:0px;word-spacing:0px;fill:#000000;fill-opacity:1;stroke:none;font-family:Sans;-inkscape-font-specification:Helvetica"
         id="text2987"
         transform="translate(-14.146447,-2.6035534)">
        <g
           style="fill:#971223;fill-opacity:1;font-family:Sans;-inkscape-font-specification:Helvetica"
           id="text3773"
           transform="matrix(1.01707,0,0,1.01707,6.3915719,94.190759)">
          <path
             d="m -102.74805,-677.876 c 3.046805,1.03129 5.999927,3.23442 8.859372,6.60937 2.906174,3.37504 5.812421,8.01566 8.71875,13.92188 l 14.414062,28.6875 -15.257812,0 -13.429688,-26.92969 c -3.468814,-7.03122 -6.843814,-11.69527 -10.125004,-13.99219 -3.23442,-2.29683 -7.66411,-3.44527 -13.28906,-3.44531 l -15.46875,0 0,44.36719 0.002,-0.041 -10e-4,-104.93552 17.8591,0 c 11.99994,0 20.953055,2.50792 26.859372,7.52344 5.906171,5.01572 8.859293,12.58602 8.859375,22.71094 -8.2e-5,6.60944 -1.546956,12.09381 -4.640625,16.45312 -3.046949,4.35943 -7.50007,7.38287 -13.359372,9.07032 m -35.57813,-44.08594 0,37.26562 17.85938,0 c 6.84369,6e-5 11.99994,-1.57025 15.46875,-4.71093 3.51556,-3.18744 5.273367,-7.8515 5.273434,-13.99219 -6.7e-5,-6.14054 -1.757874,-10.75773 -5.273434,-13.85156 -3.46881,-3.14054 -8.62506,-4.71085 -15.46875,-4.71094 l -17.8591,0"
             id="path3778"
             inkscape:connector-curvature="0"
             sodipodi:nodetypes="cccccccsccccsccccccsccccc"
             style="fill:#971223;fill-opacity:1" />
        </g>
        <path
           d="m -224.03736,-651.9706 14.27344,0 0,63.77343 c -3e-5,11.25003 2.03903,19.3594 6.11719,24.32813 4.07809,4.92189 10.68745,7.38282 19.82812,7.38281 9.09369,10e-6 15.67962,-2.46092 19.75781,-7.38281 4.07805,-4.96873 6.11711,-13.0781 6.11719,-24.32813 l 0,-63.77343 14.27344,0 0,65.53125 c -9e-5,13.68752 -3.39853,24.02345 -10.19531,31.00781 -6.75008,6.98438 -16.73444,10.47656 -29.95313,10.47656 -13.26566,0 -23.2969,-3.49218 -30.09375,-10.47656 -6.75001,-6.98436 -10.12501,-17.32029 -10.125,-31.00781 l 0,-65.53125"
           id="path2997"
           inkscape:connector-curvature="0" />
        <text
           xml:space="preserve"
           style="font-size:144px;font-style:normal;font-variant:normal;font-weight:normal;font-stretch:normal;line-height:125%;letter-spacing:0px;word-spacing:0px;fill:#000000;fill-opacity:1;stroke:none;font-family:Sans;-inkscape-font-specification:Helvetica"
           x="159"
           y="383"
           id="text3784"
           sodipodi:linespacing="125%"
           transform="translate(-433.85376,-848.46279)"><tspan
             sodipodi:role="line"
             id="tspan3786"
             x="159"
             y="383" /></text>
      </g>
      <path
         inkscape:connector-curvature="0"
         id="path3837"
         d="m -215.0002,-604.69134 33.49999,0 0,11.78033 -33.49999,0 z"
         style="fill:#971223;fill-opacity:1;stroke:none" />
    </g>
  </g>
</svg>
